{"title":"Criminal (2016) 720p Blu-ray x264 English-Hindi AAC 5.1 ESub -DD","uid":15787987,"size":1239366210,"categoryP":"video","categoryS":"hd___movies","magnet":"?xt=urn:btih:423d7498f967073e8f5c5b4e6be6b15758ed852c&amp;dn=Criminal+%282016%29+720p+Blu-ray+x264+English-Hindi+AAC+5.1+ESub+-DD&amp;tr=udp%3A%2F%2Ftracker.leechers-paradise.org%3A6969&amp;tr=udp%3A%2F%2Fzer0day.ch%3A1337&amp;tr=udp%3A%2F%2Fopen.demonii.com%3A1337&amp;tr=udp%3A%2F%2Ftracker.coppersurfer.tk%3A6969&amp;tr=udp%3A%2F%2Fexodus.desync.com%3A6969","seeders":31,"leechers":13,"uploader":"SaM","files":3,"time":1473349189,"description":"720p Blu-ray Rip x264\r\n\r\nDual Audio English &amp; Hindi AAC 5.1 Original Audio\r\n\r\n\r\nEnglish SDH Subtitle \r\n \nhttp://extraimago.com/image/wmL7 \nhttp://extraimago.com/image/wmLs \nhttp://extraimago.com/image/wmLn \nhttp://extraimago.com/image/wmLj \nhttp://extraimago.com/image/wmLT \nhttp://extraimago.com/image/wmLN \nhttp://extraimago.com/image/wmL2 \nhttp://extraimago.com/image/wmLw \nhttp://extraimago.com/image/wmLa \nhttp://extraimago.com/image/wmL8 \nhttp://extraimago.com/image/wmyf\r\n\r\nSpecs:\r\nSource: BD50 @ DDR\r\n\r\nFormat : Matroska\r\nFile size : 1.14 GiB\r\nDuration : 1 h 53 min\r\nOverall bit rate : 1 436 kb/s\r\n\r\nVideo\r\nFormat : AVC\r\nFormat/Info : Advanced Video Codec\r\nFormat profile :   \r\nFormat settings, CABAC : Yes\r\nFormat settings, ReFrames : 12 frames\r\nCodec ID : V_MPEG4/ISO/AVC\r\nDuration : 1 h 53 min\r\nBit rate : 1 085 kb/s\r\nWidth : 1 280 pixels\r\nHeight : 534 pixels\r\nDisplay aspect ratio : 2.40:1\r\nFrame rate mode : Constant\r\nFrame rate : 23.976 (24000/1001) FPS\r\nColor space : YUV\r\nChroma subsampling : 4:2:0\r\nBit depth : 8 bits\r\nScan type : Progressive\r\nBits/(Pixel*Frame) : 0.066\r\nStream size : 881 MiB (76%)\r\nLanguage : English\r\nDefault : Yes\r\nForced : No\r\nColor primaries : BT.709\r\n\r\nAudio #1\r\nID : 2\r\nFormat : AAC\r\nFormat/Info : Advanced Audio Codec\r\nFormat profile : LC\r\nCodec ID : A_AAC\r\nDuration : 1 h 48 min\r\nBit rate : 160 kb/s\r\nChannel(s) : 6 channels\r\nChannel positions : Front: L C R, Side: L R, LFE\r\nSampling rate : 48.0 kHz\r\nFrame rate : 46.875 FPS (1024 spf)\r\nCompression mode : Lossy\r\nDelay relative to video : 9 ms\r\nStream size : 124 MiB (11%)\r\nLanguage : Hindi\r\nDefault : Yes\r\nForced : No\r\n\r\nAudio #2\r\nID : 3\r\nFormat : AAC\r\nFormat/Info : Advanced Audio Codec\r\nFormat profile : LC\r\nCodec ID : A_AAC\r\nDuration : 1 h 53 min\r\nBit rate : 192 kb/s\r\nChannel(s) : 6 channels\r\nChannel positions : Front: L C R, Side: L R, LFE\r\nSampling rate : 48.0 kHz\r\nFrame rate : 46.875 FPS (1024 spf)\r\nCompression mode : Lossy\r\nDelay relative to video : 9 ms\r\nStream size : 156 MiB (13%)\r\nLanguage : English\r\nDefault : No\r\nForced : No\r\n\r\nText\r\nID : 4\r\nFormat : VobSub\r\nMuxing mode : zlib\r\nCodec ID : S_VOBSUB\r\nCodec ID/Info : Picture based subtitle format used on DVDs\r\nDuration : 1 h 43 min\r\nBit rate : 4 570 b/s\r\nCount of elements : 1276\r\nStream size : 3.40 MiB (0%)\r\nLanguage : English\r\nDefault : Yes\r\nForced : No\r\n\r\nChapters = YES\r\n\r\n\r\nSAMPLE Included","torrent":{"xt":"urn:btih:423d7498f967073e8f5c5b4e6be6b15758ed852c","amp;dn":"Criminal+%282016%29+720p+Blu-ray+x264+English-Hindi+AAC+5.1+ESub+-DD","amp;tr":["udp%3A%2F%2Ftracker.leechers-paradise.org%3A6969","udp%3A%2F%2Fzer0day.ch%3A1337","udp%3A%2F%2Fopen.demonii.com%3A1337","udp%3A%2F%2Ftracker.coppersurfer.tk%3A6969","udp%3A%2F%2Fexodus.desync.com%3A6969"],"infoHash":"423d7498f967073e8f5c5b4e6be6b15758ed852c","infoHashBuffer":{"type":"Buffer","data":[66,61,116,152,249,103,7,62,143,92,91,78,107,230,177,87,88,237,133,44]},"announce":[],"urlList":[]}}